
<svg xmlns="http://www.w3.org/2000/svg" xmlns:xlink="http://www.w3.org/1999/xlink" width="311" height="100" viewBox="0 0 311 100"><g id="SvgjsG5541" featurekey="rootContainer" transform="matrix(1,0,0,1,0,0)" fill="#2858a3"><rect y="0" height="1" width="1" opacity="0"></rect><rect y="95" width="311" height="5"></rect></g><g id="SvgjsG5542" featurekey="nameLeftFeature-0" transform="matrix(1.1951285751291842,0,0,1.1951285751291842,-0.478049834382876,16.160895780602125)" fill="#2858a3"><path d="M7.8 40.32 c-2.76 -0.24 -7.4 -3.4 -7.4 -3.4 l1.6 -4.44 s3.72 3.32 5.88 3.12 s3.36 -2.04 2.92 -4.24 c-0.92 -4.68 -8.52 -4.96 -8.52 -9.32 s3.08 -7.24 5.52 -7.36 c3.88 -0.2 5.92 1.76 5.92 1.76 c-0.2 0.28 -1.32 2.64 -1.32 2.64 s-4.08 -1.48 -4.76 2 c-0.92 4.64 8.24 4.2 8.4 10.44 c0.2 7.08 -5.52 9.04 -8.24 8.8 z M30.92 15.280000000000001 l-0.36 4.72 l-4.12 0.16 l0.28 19.92 l-6.04 1 l1.12 -20.76 l-4.36 0.16 l0.12 -4.4 z M41 36.88 l0.32 3.04 l-8.2 0.68 l-0.04 -3.72 l1.64 0 c0.2 -3.44 0.56 -13.4 0.52 -17.44 l-2.52 0.08 l0.12 -3.8 l8.24 0.16 l0.16 3.32 l-2.36 0.08 l0.24 17.6 l1.88 0 z M59.36 40 c-6.8 7.56 -15.76 5.16 -15.84 -8.96 c-0.08 -12.12 9.32 -16.92 14.92 -11.44 l-1.68 3.64 c-2.2 -2.24 -8.28 -0.24 -8.76 7.68 c-0.44 7 4.68 11.28 8.44 5.32 z M72.03999999999999 40.32 l-5.88 -9.16 l-0.28 0.36 l-0.6 9.88 l-4 0 l0.8 -25.92 l4.8 0 l-0.6 9.88 l4.96 -7.52 l3.88 0.6 l-6.28 8.88 l6.88 11.2 z M90.32000000000001 41.6 l-10.92 -0.2 l-0.56 -24.04 l10.68 -1.4 l-0.12 4.52 l-6.12 0 l0 7.64 l5.12 -0.44 l0.28 4.56 l-5.2 -0.08 l-0.28 5.8 l7.52 -0.28 z M103.48 40.04 l-4.6 -10.32 c-0.44 0.08 -0.84 0.16 -1.2 0.2 l0.2 10.52 l-4.96 -0.36 l0.44 -25.36 l4.32 -0.56 c4.28 -0.56 8.04 2.28 8.28 6.72 c0.16 2.96 -0.88 5.4 -3.04 7.04 l4.64 9.44 z M97.52000000000001 22.4 l0.04 1.12 c0.68 0.12 4.04 0.48 4.2 -2.04 c0.2 -3.68 -2.56 -2.76 -3.92 -2.56 z"></path></g><g id="SvgjsG5543" featurekey="inlineSymbolFeature-0" transform="matrix(0.816763102833425,0,0,0.816763102833425,139.49263338915316,9.54325501056166)" fill="#2858a3"><path xmlns="http://www.w3.org/2000/svg" d="M87.905,47.226L59.152,86.255l15.391-2.269c10.153-1.498,17.167-10.938,15.672-21.09L87.905,47.226z"></path><path xmlns="http://www.w3.org/2000/svg" d="M84.134,26.226C82.639,16.074,73.198,9.059,63.047,10.555l-36.759,5.417C16.135,17.47,9.121,26.911,10.617,37.062  l5.417,36.759c1.498,10.153,10.938,17.167,21.089,15.669l15.21-2.241l-3.225-21.876c-1.498-10.151,5.518-19.592,15.669-21.09  l21.549-3.176L52.334,87.249L86.328,41.11L84.134,26.226z"></path></g><g id="SvgjsG5544" featurekey="nameRightFeature-0" transform="matrix(1.244294217302512,0,0,1.244294217302512,216.32708926137144,13.987181131925709)" fill="#2858a3"><path d="M29.240000000000002 40 c-6.8 7.56 -15.76 5.16 -15.84 -8.96 c-0.08 -12.12 9.32 -16.92 14.92 -11.44 l-1.68 3.64 c-2.2 -2.24 -8.28 -0.24 -8.76 7.68 c-0.44 7 4.68 11.28 8.44 5.32 z M42.84 41.48 l-10.84 -0.24 l0.08 -25.56 l4.8 -0.16 l-1.28 21.56 l7.24 0.56 l0 3.84 z M49.760000000000005 39.24 c-9.28 0.56 -4.08 -23.96 -4.08 -23.96 l4.52 0 s-4.28 17.76 -0.32 18.08 c3.96 0.36 5.2 -16.96 5.2 -16.96 l3.96 -0.32 s0 22.6 -9.28 23.16 z M75.72 34.8 c0.48 6.2 -5.6 7.72 -8.4 7.84 s-5.04 -0.36 -5.04 -0.36 l-1.04 -25.2 s2.44 -0.44 4.68 -0.56 c2.2 -0.12 6.4 0.16 6.64 5.4 c0.12 2.44 -1.16 4.16 -2.84 5.28 c2.96 0.64 5.6 2.48 6 7.6 z M68.60000000000001 21.76 c0.12 -2.44 -3.12 -1.48 -3.12 -1.48 l0.4 5.6 c1.4 -1.08 2.64 -2.68 2.72 -4.12 z M66.68 37.92 c0 0 4.24 -0.16 3.8 -3.64 c-0.4 -3.2 -2.56 -4.04 -4.32 -4.2 z"></path></g></svg>